<svg width="81" height="80" viewBox="0 0 81 80" fill="none" xmlns="http://www.w3.org/2000/svg">
<rect x="0.5" width="80" height="80" rx="40" fill="#E3F9F2"/>
<path d="M24.5161 45.8064V54.1935C24.5161 55.6187 25.6716 56.7741 27.0968 56.7741H52.9032C54.3284 56.7741 55.4839 55.6187 55.4839 54.1935V45.8064H24.5161Z" fill="#13CF8F"/>
<path d="M58.7097 39.3548H50.3581C50.389 38.9187 50.4413 38.4865 50.5335 38.0645H51.5084C52.8865 38.0645 54.1187 37.2561 54.6761 36.02C56.2161 35.5271 57.2974 34.1471 57.4097 32.5355L57.9865 31.9587C58.4529 31.4916 58.7097 30.8716 58.7097 30.2123C58.7097 29.5935 58.4729 29.0335 58.0955 28.6C58.4865 28.1503 58.7097 27.5877 58.7097 26.9865C58.7097 25.6239 57.6013 24.5161 56.24 24.5161H55.3994L54.8387 23.6755V22.8187C54.8387 21.2645 53.5742 20 52.02 20C50.7239 20 49.5994 20.8781 49.2858 22.1355L49.0955 22.8961C48.8568 23.1368 48.6439 23.3955 48.4458 23.6626L48.2194 23.4361C47.6677 22.8845 46.9348 22.5806 46.1548 22.5806C44.8974 22.5806 43.7839 23.3826 43.3852 24.5768L43.371 24.6213L42.8568 24.7497C41.5542 25.0755 40.6452 26.2394 40.6452 27.5813V27.7419H40.5342C40.3548 27.7419 40.1794 27.7677 40.0058 27.8058C39.8316 27.7665 39.6516 27.7419 39.4658 27.7419H39.3548V27.5813C39.3548 26.2394 38.4458 25.0748 37.1432 24.7497L36.629 24.6213L36.6142 24.5761C36.2161 23.3826 35.1026 22.5806 33.8452 22.5806C33.0652 22.5806 32.3323 22.8845 31.7813 23.4355L31.5548 23.6619C31.3568 23.3948 31.1439 23.1355 30.9052 22.8955L30.7142 22.1355C30.4006 20.8781 29.2761 20 27.98 20C26.4258 20 25.1613 21.2645 25.1613 22.8187V23.6755L24.6013 24.5161H23.76C22.3987 24.5161 21.2903 25.6239 21.2903 26.9865C21.2903 27.5877 21.5129 28.1503 21.9045 28.6C21.5271 29.0335 21.2903 29.5929 21.2903 30.2123C21.2903 30.8716 21.5471 31.4916 22.0135 31.9587L22.5903 32.5355C22.7026 34.1477 23.7845 35.5271 25.3239 36.02C25.8813 37.2561 27.1135 38.0645 28.4916 38.0645H29.4665C29.5587 38.4865 29.611 38.9187 29.6419 39.3548H21.2903C20.5787 39.3548 20 39.9335 20 40.6452V43.2258C20 43.9374 20.5787 44.5161 21.2903 44.5161V54.8387C21.2903 57.6845 23.6058 60 26.4516 60H53.5484C56.3942 60 58.7097 57.6845 58.7097 54.8387V44.5161C59.4213 44.5161 60 43.9374 60 43.2258V40.6452C60 39.9335 59.4213 39.3548 58.7097 39.3548ZM47.7065 39.3548C47.6768 38.8761 47.6206 38.4026 47.5258 37.9387L48.3871 36.6471L49.2484 37.9387C49.1535 38.4026 49.0974 38.8761 49.0677 39.3548H47.7065ZM33.7594 38.0645H34.7342C36.1123 38.0645 37.3445 37.2561 37.9019 36.02C38.7884 35.7361 39.5148 35.1523 40.0006 34.4052C40.4858 35.1523 41.2116 35.7361 42.0981 36.02C42.6555 37.2561 43.8877 38.0645 45.2658 38.0645H46.2406C46.3329 38.4865 46.3852 38.9187 46.4161 39.3548H33.5839C33.6148 38.9187 33.6671 38.4865 33.7594 38.0645ZM41.2123 31.9581C41.6787 31.4916 41.9355 30.8716 41.9355 30.2123C41.9355 29.9697 41.8897 29.74 41.8239 29.5187L43.0303 30.3226H43.2258C44.449 30.3226 45.5097 31.151 45.8064 32.3387L45.9129 32.7581L46.4594 32.94C47.2265 33.1961 47.7419 33.9116 47.7419 34.7206C47.7419 35.0923 47.6329 35.4523 47.4271 35.7613L47.0516 36.3245C46.431 34.7019 45.4123 33.24 44.0406 32.0968L43.6394 31.7619L42.8129 32.7529L43.2142 33.0877C44.411 34.0852 45.3 35.3594 45.8432 36.7735H45.2658C44.3239 36.7735 43.491 36.1729 43.1923 35.2794L43.0806 34.9432L42.66 34.8387C41.5548 34.5626 40.7697 33.6206 40.6658 32.5045L41.2123 31.9581ZM57.0742 31.0465L56.129 31.9903V32.2581C56.129 33.4813 55.3006 34.5426 54.1142 34.8387L53.6935 34.9439L53.5819 35.28C53.2832 36.1735 52.4503 36.7742 51.5084 36.7742H50.931C51.4742 35.3594 52.3632 34.0852 53.56 33.0884L53.9613 32.7535L53.1348 31.7626L52.7335 32.0974C51.3619 33.2406 50.3439 34.7019 49.7226 36.3252L49.3471 35.7619C49.1413 35.4523 49.0323 35.0923 49.0323 34.7206C49.0323 33.9116 49.5477 33.1961 50.3148 32.9406L50.8613 32.7587L50.9684 32.3374C51.2645 31.151 52.3252 30.3226 53.5484 30.3226H53.7439L55.3819 29.231C55.5768 29.1006 55.8026 29.0323 56.0361 29.0323H56.2394C56.8903 29.0323 57.4194 29.5613 57.4194 30.2123C57.4194 30.5271 57.2968 30.8232 57.0742 31.0465ZM57.4194 26.9865C57.4194 27.3013 57.2968 27.5981 57.0742 27.82L57.0155 27.8787C56.7697 27.7968 56.5123 27.7419 56.24 27.7419H56.0368C56.02 27.7419 56.0032 27.7452 55.9865 27.7458C56.0768 27.4219 56.129 27.0845 56.129 26.7387C56.129 26.4213 56.0813 26.1097 56.0026 25.8065H56.24C56.8903 25.8065 57.4194 26.3355 57.4194 26.9865ZM50.0219 23.7929L50.2594 23.5561L50.5368 22.4484C50.7077 21.7665 51.3174 21.2903 52.02 21.2903C52.8626 21.2903 53.5484 21.9761 53.5484 22.8187V24.0665L54.4297 25.3884C54.6974 25.7897 54.8387 26.2568 54.8387 26.7387C54.8387 27.5548 54.4335 28.3116 53.7542 28.7645L53.3452 29.0374C52.5181 29.0794 51.7503 29.3774 51.1271 29.8606L52.2432 24.651L50.9819 24.3806L49.3581 31.9594C48.9729 32.1748 48.6471 32.4703 48.3871 32.8148C48.0581 32.38 47.6181 32.031 47.0968 31.811V30.8574C47.0968 29.8529 47.4877 28.9084 48.1981 28.1981L48.3871 28.009V27.7419C48.3871 26.2503 48.9677 24.8477 50.0219 23.7929ZM43.169 26.0019L44.371 25.7013L44.609 24.9852C44.8316 24.3187 45.4529 23.871 46.1548 23.871C46.5903 23.871 46.9994 24.0406 47.3065 24.3477L47.7606 24.8019C47.3665 25.6329 47.1368 26.5381 47.1019 27.4794C46.9561 27.6413 46.8258 27.8135 46.7032 27.991L45.6652 26.6935L44.6568 27.5L46.0671 29.2626C45.9806 29.5226 45.9148 29.789 45.8723 30.0626C45.2123 29.4645 44.3606 29.0852 43.4284 29.0374L42.1077 28.1568C42.0523 28.12 41.9929 28.0916 41.9348 28.0594V27.5819C41.9355 26.8329 42.4426 26.1832 43.169 26.0019ZM40.6452 30.2123C40.6452 30.5271 40.5226 30.8239 40.3 31.0465L39.3548 31.9903V32.2581C39.3548 33.4813 38.5265 34.5426 37.34 34.8387L36.9194 34.9439L36.8077 35.28C36.509 36.1735 35.6761 36.7742 34.7342 36.7742H34.1568C34.7 35.3594 35.589 34.0852 36.7858 33.0884L37.1871 32.7535L36.3606 31.7626L35.9594 32.0974C34.5877 33.2406 33.5697 34.7019 32.9484 36.3252L32.5729 35.7619C32.3671 35.4523 32.2581 35.0923 32.2581 34.7206C32.2581 33.9116 32.7735 33.1961 33.5406 32.9406L34.0871 32.7587L34.1942 32.3374C34.4903 31.151 35.551 30.3226 36.7742 30.3226H36.9697L38.6077 29.231C38.8026 29.1006 39.0284 29.0323 39.2619 29.0323H39.4652C40.1161 29.0323 40.6452 29.5613 40.6452 30.2123ZM32.6935 24.3477C33.0006 24.0406 33.4097 23.871 33.8452 23.871C34.5471 23.871 35.1684 24.3187 35.3903 24.9839L35.629 25.7013L36.831 26.0019C37.5574 26.1832 38.0645 26.8329 38.0645 27.5813V28.0587C38.0065 28.091 37.9471 28.1194 37.8916 28.1561L36.571 29.0368C35.6387 29.0839 34.7865 29.4639 34.1271 30.0613C34.0839 29.7884 34.0181 29.5219 33.9323 29.2619L35.3426 27.4994L34.3342 26.6929L33.2961 27.9903C33.1735 27.8135 33.0432 27.6413 32.8974 27.4787C32.8626 26.5374 32.6329 25.6323 32.2387 24.8013L32.6935 24.3477ZM25.5703 25.3884L26.4516 24.0665V22.8187C26.4516 21.9761 27.1368 21.2903 27.98 21.2903C28.6826 21.2903 29.2923 21.7665 29.4632 22.4484L29.7406 23.5561L29.9774 23.7923C31.0323 24.8477 31.6129 26.2503 31.6129 27.7419V28.009L31.8019 28.1981C32.5123 28.9084 32.9032 29.8529 32.9032 30.8574V31.811C32.3819 32.0316 31.9419 32.38 31.6129 32.8148C31.3529 32.4703 31.0271 32.1755 30.6419 31.9594L29.0181 24.3813L27.7568 24.6516L28.8735 29.8613C28.2497 29.3774 27.4819 29.0794 26.6555 29.0374L26.2465 28.7645C25.5665 28.3116 25.1613 27.5548 25.1613 26.7387C25.1613 26.2568 25.3026 25.7897 25.5703 25.3884ZM23.76 25.8065H23.9974C23.9187 26.1097 23.871 26.4213 23.871 26.7387C23.871 27.0845 23.9232 27.4213 24.0135 27.7452C23.9968 27.7452 23.9806 27.7419 23.9639 27.7419H23.76C23.4871 27.7419 23.2297 27.7968 22.9845 27.8787L22.9258 27.8206C22.7032 27.5974 22.5806 27.3013 22.5806 26.9865C22.5806 26.3355 23.1097 25.8065 23.76 25.8065ZM28.4916 36.7742C27.5497 36.7742 26.7168 36.1735 26.4181 35.28L26.3065 34.9439L25.8858 34.8387C24.6994 34.5426 23.871 33.4813 23.871 32.2581V31.9903L22.9258 31.0465C22.7032 30.8232 22.5806 30.5271 22.5806 30.2123C22.5806 29.5613 23.1097 29.0323 23.76 29.0323H23.9632C24.1968 29.0323 24.4232 29.1006 24.6181 29.2303L26.06 30.1916L26.0935 30.2142L26.2561 30.3226H26.4516C27.6748 30.3226 28.7355 31.151 29.0323 32.3387L29.1387 32.7581L29.6852 32.94C30.4523 33.1961 30.9677 33.9116 30.9677 34.7206C30.9677 35.0923 30.8587 35.4523 30.6529 35.7613L30.2774 36.3245C29.6568 34.7019 28.6381 33.24 27.2665 32.0968L26.8652 31.7619L26.0387 32.7529L26.44 33.0877C27.6368 34.0852 28.5258 35.3594 29.069 36.7735H28.4916V36.7742ZM30.7516 37.9387L31.6129 36.6471L32.4742 37.9387C32.3794 38.4026 32.3232 38.8761 32.2935 39.3548H30.9323C30.9026 38.8761 30.8465 38.4026 30.7516 37.9387ZM57.4194 54.8387C57.4194 56.9735 55.6832 58.7097 53.5484 58.7097H26.4516C24.3168 58.7097 22.5806 56.9735 22.5806 54.8387V44.5161H23.871V54.1935C23.871 55.9723 25.3181 57.4194 27.0968 57.4194H52.9032C54.6819 57.4194 56.129 55.9723 56.129 54.1935V44.5161H57.4194V54.8387ZM25.1613 44.5161H54.8387V54.1935C54.8387 55.2606 53.9703 56.129 52.9032 56.129H27.0968C26.0297 56.129 25.1613 55.2606 25.1613 54.1935V44.5161ZM21.2903 43.2258V40.6452H58.7097L58.7103 43.2258H21.2903Z" fill="#051833"/>
<path d="M28.0304 52.8354C29.8426 51.929 30.9678 50.1077 30.9678 48.0825V45.8064H29.6775V48.0825C29.6775 49.6161 28.8252 50.9954 27.4536 51.6812L28.0304 52.8354Z" fill="#051833"/>
<path d="M35.1957 54.7709L35.7731 53.6167C34.4009 52.9303 33.5486 51.5516 33.5486 50.018V49.9851C34.8086 51.0219 36.4086 51.6129 38.0648 51.6129V50.3225C36.3138 50.3225 34.6448 49.5109 33.5486 48.1522V45.8064H32.2583V50.018C32.2583 52.0432 33.3835 53.8645 35.1957 54.7709Z" fill="#051833"/>
<path d="M51.9696 52.8354L52.5471 51.6812C51.1748 50.9948 50.3225 49.6161 50.3225 48.0825V45.8064H49.0322V48.0825C49.0322 50.1077 50.1574 51.929 51.9696 52.8354Z" fill="#051833"/>
<path d="M41.9355 50.3225V51.6129C43.5917 51.6129 45.1917 51.0219 46.4517 49.9851V50.018C46.4517 51.5516 45.5994 52.9309 44.2278 53.6167L44.8052 54.7709C46.6168 53.8645 47.742 52.0432 47.742 50.018V45.8064H46.4517V48.1522C45.3556 49.5109 43.6865 50.3225 41.9355 50.3225Z" fill="#051833"/>
<path d="M27.0968 49.6775C27.4531 49.6775 27.742 49.3887 27.742 49.0324C27.742 48.6761 27.4531 48.3872 27.0968 48.3872C26.7405 48.3872 26.4517 48.6761 26.4517 49.0324C26.4517 49.3887 26.7405 49.6775 27.0968 49.6775Z" fill="#051833"/>
<path d="M29.6774 54.8386C30.0337 54.8386 30.3226 54.5498 30.3226 54.1935C30.3226 53.8372 30.0337 53.5483 29.6774 53.5483C29.3211 53.5483 29.0322 53.8372 29.0322 54.1935C29.0322 54.5498 29.3211 54.8386 29.6774 54.8386Z" fill="#051833"/>
<path d="M52.9035 49.6775C53.2598 49.6775 53.5486 49.3887 53.5486 49.0324C53.5486 48.6761 53.2598 48.3872 52.9035 48.3872C52.5471 48.3872 52.2583 48.6761 52.2583 49.0324C52.2583 49.3887 52.5471 49.6775 52.9035 49.6775Z" fill="#051833"/>
<path d="M50.3224 54.8386C50.6787 54.8386 50.9676 54.5498 50.9676 54.1935C50.9676 53.8372 50.6787 53.5483 50.3224 53.5483C49.9661 53.5483 49.6772 53.8372 49.6772 54.1935C49.6772 54.5498 49.9661 54.8386 50.3224 54.8386Z" fill="#051833"/>
<path d="M38.7096 54.8386C39.0659 54.8386 39.3548 54.5498 39.3548 54.1935C39.3548 53.8372 39.0659 53.5483 38.7096 53.5483C38.3533 53.5483 38.0645 53.8372 38.0645 54.1935C38.0645 54.5498 38.3533 54.8386 38.7096 54.8386Z" fill="#051833"/>
<path d="M41.2902 49.6775C41.6465 49.6775 41.9354 49.3887 41.9354 49.0324C41.9354 48.6761 41.6465 48.3872 41.2902 48.3872C40.9339 48.3872 40.645 48.6761 40.645 49.0324C40.645 49.3887 40.9339 49.6775 41.2902 49.6775Z" fill="#051833"/>
</svg>
