<svg width="80" height="80" viewBox="0 0 80 80" fill="none" xmlns="http://www.w3.org/2000/svg">
<rect width="80" height="80" rx="40" fill="#E3F9F2"/>
<path d="M36.875 26.25C36.875 27.9731 38.2769 29.375 40 29.375C41.7231 29.375 43.125 27.9731 43.125 26.25H36.875Z" fill="#13CF8F"/>
<path d="M55 23.75H53.75V22.5C53.75 22.155 53.47 21.875 53.125 21.875C52.78 21.875 52.5 22.155 52.5 22.5V23.75H51.25V22.5C51.25 21.4662 52.0912 20.625 53.125 20.625C54.1587 20.625 55 21.4662 55 22.5V23.75Z" fill="#051833"/>
<path d="M28.75 23.75H27.5V22.5C27.5 22.155 27.22 21.875 26.875 21.875C26.53 21.875 26.25 22.155 26.25 22.5V23.75H25V22.5C25 21.4662 25.8412 20.625 26.875 20.625C27.9088 20.625 28.75 21.4662 28.75 22.5V23.75Z" fill="#051833"/>
<path d="M40 59.3749C37.5881 59.3749 35.625 57.4118 35.625 54.9999C35.625 54.0586 35.9356 53.1268 36.5 52.3749L40 47.708L43.5 52.3755C44.0644 53.1268 44.375 54.0586 44.375 54.9999C44.375 57.4118 42.4119 59.3749 40 59.3749Z" fill="#13CF8F"/>
<path d="M53.1781 52.5563C52.9425 52.2431 52.6881 51.9331 52.4219 51.635L53.3544 50.8025C53.6437 51.1269 53.92 51.4638 54.1762 51.8044L53.1781 52.5563ZM26.8356 52.5381L25.8394 51.7838C26.0987 51.44 26.3756 51.1044 26.6625 50.7844L27.5925 51.6194C27.33 51.9131 27.0744 52.2219 26.8356 52.5381ZM51.5919 50.7806C51.305 50.5094 51.0031 50.2469 50.6931 49.9994L51.4731 49.0231C51.81 49.2919 52.1387 49.5781 52.4506 49.8738L51.5919 50.7806ZM28.425 50.7663L27.5669 49.8581C27.8762 49.565 28.2056 49.2794 28.545 49.0094L29.3237 49.9869C29.0125 50.235 28.71 50.4975 28.425 50.7663ZM49.7319 49.2963C49.4031 49.075 49.0612 48.8663 48.7156 48.6744L49.3237 47.5819C49.6994 47.7906 50.07 48.0181 50.4281 48.2575L49.7319 49.2963ZM30.2869 49.2838L29.5925 48.245C29.9506 48.005 30.3231 47.7781 30.6987 47.57L31.3044 48.6638C30.9587 48.8544 30.6162 49.0631 30.2869 49.2838ZM47.6506 48.1381C47.2894 47.975 46.9175 47.8256 46.545 47.6931L46.9637 46.515C47.3681 46.6588 47.7719 46.8213 48.1644 46.9988L47.6506 48.1381ZM32.3687 48.13L31.8562 46.99C32.2487 46.8137 32.6525 46.6519 33.0581 46.5081L33.4756 47.6863C33.1019 47.8188 32.7294 47.9675 32.3687 48.13ZM45.4081 47.3431C45.0281 47.2438 44.6369 47.1581 44.2444 47.0887L44.4619 45.8581C44.8875 45.9325 45.3125 46.0262 45.7256 46.1344L45.4081 47.3431ZM34.6131 47.3369L34.2981 46.1269C34.7175 46.0175 35.1431 45.925 35.5631 45.8519L35.7781 47.0838C35.3912 47.1506 34.9994 47.2362 34.6131 47.3369ZM43.065 46.9319C42.6662 46.8963 42.2669 46.8775 41.8762 46.8756L41.8825 45.6256C42.3075 45.6275 42.7431 45.6481 43.1762 45.6869L43.065 46.9319ZM36.9606 46.93L36.8494 45.685C37.2737 45.6469 37.7087 45.6269 38.1444 45.625L38.1494 46.875C37.7494 46.8769 37.3494 46.895 36.9606 46.93ZM40.635 46.875H39.3912V45.625H40.635V46.875Z" fill="#051833"/>
<path d="M55.3436 51.28C55.1067 50.9544 54.8567 50.6344 54.5986 50.3281L55.5555 49.5238C55.8317 49.8519 56.1005 50.1956 56.3542 50.5444L55.3436 51.28ZM53.7886 49.4338C53.5067 49.1444 53.2123 48.8638 52.9148 48.5994L53.7448 47.6644C54.0648 47.9488 54.3811 48.2506 54.6836 48.5613L53.7886 49.4338ZM51.9836 47.8294C51.6611 47.5825 51.3292 47.3475 50.9986 47.13L51.6848 46.085C52.0411 46.3194 52.3973 46.5719 52.743 46.8369L51.9836 47.8294ZM49.9636 46.5031C49.6192 46.31 49.258 46.125 48.8892 45.9525L49.4192 44.82C49.8155 45.0056 50.2048 45.205 50.5755 45.4131L49.9636 46.5031ZM47.7786 45.48C47.3992 45.335 47.0142 45.2038 46.6348 45.0888L46.9948 43.8925C47.4036 44.015 47.8167 44.1569 48.2242 44.3119L47.7786 45.48ZM45.4661 44.7806C45.0723 44.6925 44.6717 44.6181 44.2773 44.5594L44.463 43.3225C44.8873 43.3869 45.3161 43.4663 45.7386 43.5613L45.4661 44.7806Z" fill="#051833"/>
<path d="M24.6498 51.2882L23.6367 50.5557C23.8905 50.2045 24.1598 49.8607 24.4373 49.5307L25.393 50.3363C25.1361 50.642 24.8855 50.9626 24.6498 51.2882ZM26.2055 49.4401L25.3092 48.5688C25.6105 48.2588 25.9267 47.957 26.2486 47.6707L27.0786 48.6057C26.7798 48.8713 26.4855 49.1526 26.2055 49.4401ZM28.0092 47.8357L27.2486 46.8432C27.5917 46.5807 27.9473 46.3276 28.3061 46.0913L28.9936 47.1351C28.6598 47.3557 28.3286 47.5913 28.0092 47.8357ZM30.0273 46.507L29.4167 45.4157C29.7942 45.2045 30.1836 45.0051 30.5717 44.8232L31.103 45.9551C30.7411 46.1245 30.3792 46.3101 30.0273 46.507ZM32.2136 45.4826L31.7655 44.3157C32.1692 44.1607 32.583 44.0188 32.9955 43.8951L33.3555 45.0913C32.973 45.2076 32.5886 45.3388 32.2136 45.4826ZM34.5248 44.7832L34.2505 43.5638C34.6692 43.4701 35.098 43.3895 35.5261 43.3245L35.7117 44.5613C35.3136 44.6213 34.9142 44.6957 34.5248 44.7832Z" fill="#051833"/>
<path d="M56.6363 34.375L57.5738 32.5L56.6363 30.625H55V26.25H53.75V30.625H52.5V26.25H51.25V30.625H47.9331L46.8188 27.6525C46.3638 26.44 45.1875 25.625 43.8925 25.625H36.1075C34.8125 25.625 33.6363 26.44 33.1806 27.6525L32.0669 30.625H28.75V26.25H27.5V30.625H26.25V26.25H25V30.625H23.3638L22.4263 32.5L23.3638 34.375H27.7906L25.2906 38.125H25C24.3106 38.125 23.75 38.6856 23.75 39.375V40.625C23.75 41.3144 24.3106 41.875 25 41.875H30C30.6894 41.875 31.25 41.3144 31.25 40.625V39.375C31.25 38.8469 30.9194 38.3969 30.4556 38.2137L32.5088 34.9794C33.7994 36.8231 35.85 37.9763 38.125 38.1094V40.625C37.0913 40.625 36.25 41.4663 36.25 42.5V44.375H43.75V42.5C43.75 41.4663 42.9088 40.625 41.875 40.625V38.1094C44.15 37.9763 46.2 36.8231 47.4913 34.9794L49.5444 38.2137C49.0806 38.3969 48.75 38.8469 48.75 39.375V40.625C48.75 41.3144 49.3106 41.875 50 41.875H55C55.6894 41.875 56.25 41.3144 56.25 40.625V39.375C56.25 38.6856 55.6894 38.125 55 38.125H54.7094L52.2094 34.375H56.6363ZM34.3519 28.0919C34.6244 27.3637 35.33 26.875 36.1075 26.875H43.8919C44.6694 26.875 45.375 27.3637 45.6481 28.0919L46.5981 30.625H33.4019L34.3519 28.0919ZM23.8238 32.5L24.1363 31.875H55.8638L56.1763 32.5L55.8638 33.125H24.1363L23.8238 32.5ZM29.2925 34.375H31.4113L29.0306 38.125H26.7925L29.2925 34.375ZM30 40.625H25V39.375H30V40.625ZM42.5 42.5V43.125H37.5V42.5C37.5 42.155 37.78 41.875 38.125 41.875H41.875C42.22 41.875 42.5 42.155 42.5 42.5ZM39.375 40.625V38.125H40.625V40.625H39.375ZM41.4325 36.875H38.5675C36.5819 36.875 34.7731 35.9344 33.6244 34.375H46.375C45.2269 35.9344 43.4181 36.875 41.4325 36.875ZM55.0013 40.625H50V39.375H55L55.0013 40.625ZM53.2075 38.125H50.9688L48.5881 34.375H50.7069L53.2075 38.125Z" fill="#051833"/>
<path d="M50 59.3749C48.6212 59.3749 47.5 58.2536 47.5 56.8749C47.5 56.3386 47.6775 55.8061 47.9994 55.3761L50 52.708L52 55.3755C52.3225 55.8061 52.5 56.3386 52.5 56.8749C52.5 58.2536 51.3787 59.3749 50 59.3749Z" fill="#13CF8F"/>
<path d="M31.875 58.1249C30.4962 58.1249 29.375 57.0036 29.375 55.6249C29.375 55.0886 29.5525 54.5561 29.8744 54.1261L31.875 51.458L33.875 54.1255C34.1975 54.5561 34.375 55.0886 34.375 55.6249C34.375 57.0036 33.2537 58.1249 31.875 58.1249Z" fill="#13CF8F"/>
<path d="M57.1337 26.875H49.1162L47.2412 25L49.1162 23.125H57.1337L59.0087 25L57.1337 26.875Z" fill="#13CF8F"/>
<path d="M30.8837 26.875H22.8662L20.9912 25L22.8662 23.125H30.8837L32.7587 25L30.8837 26.875Z" fill="#13CF8F"/>
</svg>
