<svg width="80" height="80" viewBox="0 0 80 80" fill="none" xmlns="http://www.w3.org/2000/svg">
<rect width="80" height="80" rx="40" fill="#E3F9F2"/>
<path d="M32.2217 20C27.2776 20 23.2559 24.0217 23.2559 28.9659V33.4488H23.8963C23.8963 32.3875 24.7562 31.5276 25.8175 31.5276H26.458V30.2517C26.458 29.484 26.9492 28.802 27.6778 28.5594C28.1269 28.4093 28.6169 28.4446 29.0403 28.656L29.7952 29.0331C30.5491 29.4102 31.3796 29.6063 32.2217 29.6063C33.0639 29.6063 33.8944 29.4102 34.6483 29.0337L35.4032 28.6566C35.8266 28.4452 36.3166 28.4099 36.7657 28.56C37.4943 28.802 37.9855 29.484 37.9855 30.2517V31.5276H38.6259C39.6873 31.5276 40.5472 32.3875 40.5472 33.4488H41.1876V28.9659C41.1876 24.0217 37.1659 20 32.2217 20Z" fill="#13CF8F"/>
<path d="M58.479 36.6509H59.7598V37.9317H58.479V36.6509Z" fill="#051833"/>
<path d="M30.3004 31.5276C30.3004 31.8813 30.0136 32.1681 29.66 32.1681C29.3063 32.1681 29.0195 31.8813 29.0195 31.5276C29.0195 31.174 29.3063 30.8872 29.66 30.8872C30.0136 30.8872 30.3004 31.174 30.3004 31.5276Z" fill="#051833"/>
<path d="M35.4239 31.5276C35.4239 31.8813 35.1372 32.1681 34.7835 32.1681C34.4298 32.1681 34.1431 31.8813 34.1431 31.5276C34.1431 31.174 34.4298 30.8872 34.7835 30.8872C35.1372 30.8872 35.4239 31.174 35.4239 31.5276Z" fill="#051833"/>
<path d="M32.2218 36.0106C31.5154 36.0106 30.941 35.4361 30.941 34.7297H29.6602C29.6602 36.1425 30.809 37.2914 32.2218 37.2914C33.6346 37.2914 34.7835 36.1425 34.7835 34.7297H33.5027C33.5027 35.4361 32.9282 36.0106 32.2218 36.0106Z" fill="#051833"/>
<path d="M52.3192 36.651L51.4343 38.4212L50.5493 36.651H47.3735L44.9904 31.0902L42.6651 37.2914H37.7594C37.9933 36.8893 38.1884 36.4621 38.3307 36.0106H38.6259C40.0387 36.0106 41.1876 34.8617 41.1876 33.4489C41.1876 32.0361 40.0387 30.8872 38.6259 30.8872V30.2518C38.6259 29.2067 37.9598 28.2821 36.9673 27.9516C36.3544 27.7467 35.6958 27.7927 35.1164 28.0835L34.3612 28.4606C33.0394 29.1217 31.4033 29.1217 30.0809 28.4606L29.3257 28.0835C28.7469 27.7939 28.0877 27.7474 27.4742 27.9516C26.4836 28.2827 25.8175 29.2067 25.8175 30.2518V30.8872C24.4047 30.8872 23.2558 32.0361 23.2558 33.4489C23.2558 34.8617 24.4047 36.0106 25.8175 36.0106H26.1127C26.5974 37.5475 27.6496 38.8315 29.0196 39.627V40.6855L22.9997 42.8835C21.2379 43.5271 20.0537 45.2191 20.0537 47.095V56.504H44.3897V53.6221H43.1088V55.2232H40.5471V49.4594H39.2663V55.2232H34.7358L34.157 47.6926L34.9966 46.2892L36.5092 47.2902L37.7478 42.8982L39.5406 43.5527L39.9796 42.3494L35.4238 40.6855V39.627C35.9247 39.3362 36.3844 38.9828 36.7872 38.5723H43.5526L45.0692 34.5268L46.5292 37.9318H49.7576L51.4343 41.285L53.111 37.9318H57.1981V36.651H52.3192ZM39.9067 33.4489C39.9067 34.1553 39.3323 34.7297 38.6259 34.7297H38.5934C38.6143 34.519 38.6259 34.3057 38.6259 34.0893V32.1681C39.3323 32.1681 39.9067 32.7425 39.9067 33.4489ZM25.8175 34.7297C25.1111 34.7297 24.5367 34.1553 24.5367 33.4489C24.5367 32.7425 25.1111 32.1681 25.8175 32.1681V34.0893C25.8175 34.3057 25.8291 34.519 25.85 34.7297H25.8175ZM28.7122 45.2601L27.8854 42.4642L29.1015 42.0202L31.1419 43.6528L28.7122 45.2601ZM23.4384 44.0868L26.6796 42.9035L27.9739 47.2833L29.4602 46.2995L30.2864 47.6904L29.7075 55.2232H25.1771V48.819H23.8962V51.3807H21.3346V47.095C21.3346 45.7551 22.1798 44.5468 23.4384 44.0868ZM21.3346 52.6615H23.8962V55.2232H21.3346V52.6615ZM30.9921 55.2232L31.5337 48.1786H32.9096L33.4512 55.2232H30.9921ZM33.1395 46.8977H31.3058L30.5303 45.5931L32.1935 44.493L32.2217 44.5159L32.2645 44.4821L33.9272 45.5816L33.1395 46.8977ZM35.7531 45.2538L33.3155 43.6412L35.3425 42.0195L36.5414 42.4576L35.7531 45.2538ZM34.1429 41.3381L32.2217 42.8754L30.3004 41.3381V40.1983C30.9077 40.3891 31.5525 40.4935 32.2217 40.4935C32.8909 40.4935 33.536 40.3891 34.1429 40.1983V41.3381ZM32.2217 39.2127C29.3967 39.2127 27.0983 36.9143 27.0983 34.0893V30.2518C27.0983 29.7587 27.4129 29.3228 27.8804 29.1664C28.0002 29.1267 28.1218 29.1076 28.2435 29.1076C28.4183 29.1076 28.5924 29.148 28.7538 29.2286L29.509 29.6064C31.1848 30.4447 33.2586 30.4447 34.935 29.6064L35.6902 29.2293C35.9635 29.0929 36.2743 29.0704 36.563 29.167C37.0305 29.3228 37.345 29.7587 37.345 30.2518V34.0893C37.345 36.9143 35.0467 39.2127 32.2217 39.2127Z" fill="#051833"/>
<path d="M48.8725 60L39.5135 50.0562C38.5285 49.0096 37.9854 47.6412 37.9854 46.2028V46.1149C37.9854 43.0154 40.5073 40.4934 43.6069 40.4934C45.1088 40.4934 46.5203 41.0782 47.582 42.1398L48.8725 43.4303L50.163 42.1398C51.2247 41.0782 52.6362 40.4934 54.1381 40.4934C57.2377 40.4934 59.7596 43.0154 59.7596 46.1149V46.2028C59.7596 47.6412 59.2165 49.0096 58.2308 50.0562L48.8725 60Z" fill="#13CF8F"/>
<path d="M50.7939 55.2232H46.9513V52.6615H44.3896V48.819H46.9513V46.2573H50.7939V48.819H53.3555V52.6615H50.7939V55.2232ZM48.2322 53.9423H49.513V51.3807H52.0747V50.0998H49.513V47.5382H48.2322V50.0998H45.6705V51.3807H48.2322V53.9423Z" fill="#051833"/>
</svg>
