<svg width="81" height="80" viewBox="0 0 81 80" fill="none" xmlns="http://www.w3.org/2000/svg">
<rect x="0.5" width="80" height="80" rx="40" fill="#E3F9F2"/>
<path d="M29.6772 30.3226C28.6101 30.3226 27.7417 29.4542 27.7417 28.3871C27.7417 27.32 28.6101 26.4517 29.6772 26.4517C30.7443 26.4517 31.6127 27.32 31.6127 28.3871C31.6127 29.4542 30.7443 30.3226 29.6772 30.3226Z" fill="#13CF8F"/>
<path d="M55.4838 47.0968C54.4167 47.0968 53.5483 46.2284 53.5483 45.1613C53.5483 44.0942 54.4167 43.2258 55.4838 43.2258C56.5509 43.2258 57.4193 44.0942 57.4193 45.1613C57.4193 46.2284 56.5509 47.0968 55.4838 47.0968Z" fill="#13CF8F"/>
<path d="M47.0968 32.9032C44.251 32.9032 41.9355 30.5877 41.9355 27.7419C41.9355 24.8961 44.251 22.5806 47.0968 22.5806C49.9426 22.5806 52.2581 24.8961 52.2581 27.7419C52.2581 30.5877 49.9426 32.9032 47.0968 32.9032Z" fill="#13CF8F"/>
<path d="M43.8711 60C41.3808 60 39.355 57.9736 39.355 55.4839C39.355 52.9942 41.3808 50.9678 43.8711 50.9678C46.3614 50.9678 48.3872 52.9942 48.3872 55.4839C48.3872 57.9736 46.3614 60 43.8711 60ZM43.8711 54.1936C43.1595 54.1936 42.5808 54.7723 42.5808 55.4839C42.5808 56.1955 43.1595 56.7742 43.8711 56.7742C44.5827 56.7742 45.1614 56.1955 45.1614 55.4839C45.1614 54.7723 44.5827 54.1936 43.8711 54.1936Z" fill="#13CF8F"/>
<path d="M28.3872 60C25.8969 60 23.8711 57.9736 23.8711 55.4839C23.8711 52.9942 25.8969 50.9678 28.3872 50.9678C30.8776 50.9678 32.9034 52.9942 32.9034 55.4839C32.9034 57.9736 30.8776 60 28.3872 60ZM28.3872 54.1936C27.6756 54.1936 27.0969 54.7723 27.0969 55.4839C27.0969 56.1955 27.6756 56.7742 28.3872 56.7742C29.0988 56.7742 29.6775 56.1955 29.6775 55.4839C29.6775 54.7723 29.0988 54.1936 28.3872 54.1936Z" fill="#13CF8F"/>
<path d="M32.8517 56.1292C32.7859 56.5846 32.653 57.0182 32.4614 57.4195H39.7969C39.6053 57.0182 39.4724 56.5846 39.4066 56.1292H32.8517Z" fill="#051833"/>
<path d="M56.1006 40.6923C56.1103 40.4613 56.129 40.2303 56.129 40C56.129 37.0594 55.3265 34.2006 53.8194 31.6968C54.4794 30.5355 54.8387 29.211 54.8387 27.8684V27.7419C54.8387 23.4729 51.3658 20 47.0968 20C44.2335 20 41.7335 21.5665 40.3942 23.8839C37.8929 23.8265 35.3535 24.36 33.0865 25.4342C32.2574 24.4787 31.0381 23.871 29.6774 23.871C27.1871 23.871 25.1613 25.8974 25.1613 28.3871C25.1613 29.3587 25.4826 30.3206 26.0645 31.0961L26.3316 31.4523C24.8406 33.8323 24.0058 36.5413 23.8948 39.3548H22.5806C21.869 39.3548 21.2903 39.9335 21.2903 40.6452V53.5484C20.5787 53.5484 20 54.1271 20 54.8387V56.129C20 56.8406 20.5787 57.4194 21.2903 57.4194H24.3129C24.1213 57.0181 23.9884 56.5845 23.9226 56.129H21.2903V54.8387H23.9226C23.9884 54.3832 24.1213 53.9497 24.3129 53.5484H22.5806V40.6452H27.7419V45.56L30.9677 43.9471L34.1935 45.56V40.6452H39.3548V53.5484H32.4613C32.6529 53.9497 32.7858 54.3832 32.8516 54.8387H39.4065C39.4703 54.3935 39.6013 53.9716 39.7852 53.5781C40.0019 53.1148 40.291 52.691 40.6452 52.329V44.5161H46.7342C47.0303 44.5161 47.2884 44.7174 47.36 45.0045L47.5606 45.8064H44.5161C43.8045 45.8064 43.2258 46.3852 43.2258 47.0968V48.3871C43.2258 49.0987 43.8045 49.6774 44.5161 49.6774H48.5284L49.4961 53.5484H47.9452C48.1368 53.9497 48.2697 54.3832 48.3355 54.8387H49.6774V56.129H48.3355C48.2697 56.5845 48.1368 57.0181 47.9452 57.4194H49.6774C50.389 57.4194 50.9677 56.8406 50.9677 56.129V54.3523C50.9677 54.1948 50.9484 54.0374 50.9103 53.8826L50.4974 52.231C51.4587 51.4058 52.3161 50.4755 53.0574 49.4523L55.4839 52.6884L59.0968 47.871C59.6794 47.0948 60 46.1323 60 45.1613C60 42.8813 58.2994 40.9948 56.1006 40.6923ZM47.0968 21.2903C50.6542 21.2903 53.5484 24.1845 53.5484 27.7419V27.8677C53.5484 29.3065 53.0587 30.7226 52.1697 31.8535L47.0968 38.311L42.0239 31.8535C41.1348 30.7226 40.6452 29.3071 40.6452 27.8677V27.7419C40.6452 24.1845 43.5394 21.2903 47.0968 21.2903ZM29.6774 25.1613C31.4561 25.1613 32.9032 26.6084 32.9032 28.3871C32.9032 29.0806 32.6742 29.7684 32.2581 30.3219L29.6774 33.7632L27.0968 30.3219C26.6806 29.7684 26.4516 29.0806 26.4516 28.3871C26.4516 26.6084 27.8987 25.1613 29.6774 25.1613ZM32.9032 43.4723L30.9677 42.5045L29.0323 43.4723V40.6452H32.9032V43.4723ZM44.5161 48.3871V47.0968H47.8832L48.2058 48.3871H44.5161ZM50.1452 50.8226L48.6123 44.6916C48.3961 43.829 47.6239 43.2258 46.7342 43.2258H40.6452V40.6452C40.6452 39.9335 40.0665 39.3548 39.3548 39.3548H25.1845C25.2877 36.951 25.9613 34.631 27.1632 32.5619L29.6774 35.9142L33.2903 31.0968C33.8729 30.3206 34.1935 29.3581 34.1935 28.3871C34.1935 27.7232 34.0458 27.0942 33.7871 26.5258C35.6774 25.6503 37.6968 25.1935 39.8039 25.1671C39.5187 25.9742 39.3548 26.8381 39.3548 27.7419V27.8677C39.3548 29.5948 39.9426 31.2942 41.009 32.651L47.0968 40.3987L53.0129 32.869C54.2084 35.0471 54.8387 37.4923 54.8387 40C54.8387 40.2329 54.8206 40.4671 54.8103 40.7013C52.6394 41.0284 50.9677 42.9006 50.9677 45.1613C50.9677 46.1329 51.289 47.0948 51.871 47.8703L52.2432 48.3671C51.6323 49.2594 50.9335 50.0839 50.1452 50.8226ZM58.0645 47.0961L55.4839 50.5374L52.9032 47.0961C52.4871 46.5426 52.2581 45.8548 52.2581 45.1613C52.2581 43.3826 53.7052 41.9355 55.4839 41.9355C57.2626 41.9355 58.7097 43.3826 58.7097 45.1613C58.7097 45.8548 58.4806 46.5426 58.0645 47.0961Z" fill="#051833"/>
<path d="M35.4839 36.7742H36.7742V38.0645H35.4839V36.7742Z" fill="#051833"/>
<path d="M38.0645 36.7742H39.3548V38.0645H38.0645V36.7742Z" fill="#051833"/>
<path d="M40.645 36.7742H41.9354V38.0645H40.645V36.7742Z" fill="#051833"/>
<path d="M43.871 53.5483C42.8039 53.5483 41.9355 54.4167 41.9355 55.4838C41.9355 56.5509 42.8039 57.4193 43.871 57.4193C44.9381 57.4193 45.8065 56.5509 45.8065 55.4838C45.8065 54.4167 44.9381 53.5483 43.871 53.5483ZM43.871 56.129C43.5156 56.129 43.2259 55.84 43.2259 55.4838C43.2259 55.1277 43.5156 54.8387 43.871 54.8387C44.2265 54.8387 44.5162 55.1277 44.5162 55.4838C44.5162 55.84 44.2265 56.129 43.871 56.129Z" fill="#051833"/>
<path d="M28.3871 53.5483C27.32 53.5483 26.4517 54.4167 26.4517 55.4838C26.4517 56.5509 27.32 57.4193 28.3871 57.4193C29.4542 57.4193 30.3226 56.5509 30.3226 55.4838C30.3226 54.4167 29.4542 53.5483 28.3871 53.5483ZM28.3871 56.129C28.0317 56.129 27.742 55.84 27.742 55.4838C27.742 55.1277 28.0317 54.8387 28.3871 54.8387C28.7426 54.8387 29.0323 55.1277 29.0323 55.4838C29.0323 55.84 28.7426 56.129 28.3871 56.129Z" fill="#051833"/>
</svg>
