<svg width="40" height="41" viewBox="0 0 40 41" fill="none" xmlns="http://www.w3.org/2000/svg">
<rect y="0.506348" width="40" height="40" rx="20" fill="#EBEBEC"/>
<path d="M27.4165 12.1729H12.5832C12.3401 12.1729 12.1069 12.2694 11.935 12.4413C11.7631 12.6132 11.6665 12.8464 11.6665 13.0895V27.9229C11.6665 28.0432 11.6902 28.1624 11.7363 28.2736C11.7823 28.3849 11.8499 28.4859 11.935 28.571C12.0201 28.6562 12.1212 28.7237 12.2324 28.7697C12.3436 28.8158 12.4628 28.8395 12.5832 28.8395H20.5665V22.3812H18.3998V19.8812H20.5665V18.0062C20.5216 17.566 20.5736 17.1213 20.7188 16.7033C20.8639 16.2853 21.0988 15.9041 21.4069 15.5865C21.715 15.2689 22.0888 15.0226 22.5022 14.8647C22.9156 14.7069 23.3585 14.6414 23.7998 14.6729C24.4484 14.6689 25.0967 14.7022 25.7415 14.7729V17.0229H24.4165C23.3665 17.0229 23.1665 17.5229 23.1665 18.2479V19.8562H25.6665L25.3415 22.3562H23.1665V28.8395H27.4165C27.5369 28.8395 27.6561 28.8158 27.7673 28.7697C27.8785 28.7237 27.9796 28.6562 28.0647 28.571C28.1498 28.4859 28.2173 28.3849 28.2634 28.2736C28.3095 28.1624 28.3332 28.0432 28.3332 27.9229V13.0895C28.3332 12.9691 28.3095 12.8499 28.2634 12.7387C28.2173 12.6275 28.1498 12.5265 28.0647 12.4413C27.9796 12.3562 27.8785 12.2887 27.7673 12.2426C27.6561 12.1966 27.5369 12.1729 27.4165 12.1729Z" fill="#495059"/>
</svg>
