<svg width="40" height="41" viewBox="0 0 40 41" fill="none" xmlns="http://www.w3.org/2000/svg">
<rect y="0.506348" width="40" height="40" rx="20" fill="#EBEBEC"/>
<path d="M24.4498 15.0562C24.2521 15.0562 24.0587 15.1148 23.8943 15.2247C23.7298 15.3346 23.6016 15.4908 23.526 15.6735C23.4503 15.8562 23.4305 16.0573 23.4691 16.2513C23.5076 16.4453 23.6029 16.6234 23.7427 16.7633C23.8826 16.9031 24.0608 16.9984 24.2547 17.037C24.4487 17.0756 24.6498 17.0558 24.8325 16.9801C25.0152 16.9044 25.1714 16.7762 25.2813 16.6118C25.3912 16.4473 25.4498 16.254 25.4498 16.0562C25.4498 15.791 25.3445 15.5366 25.1569 15.3491C24.9694 15.1615 24.7151 15.0562 24.4498 15.0562ZM28.2832 17.0729C28.267 16.3814 28.1375 15.6974 27.8998 15.0479C27.6879 14.4921 27.3582 13.9889 26.9332 13.5729C26.5205 13.1457 26.0161 12.818 25.4582 12.6145C24.8104 12.3697 24.1255 12.2372 23.4332 12.2229C22.5498 12.1729 22.2665 12.1729 19.9998 12.1729C17.7332 12.1729 17.4498 12.1729 16.5665 12.2229C15.8741 12.2372 15.1893 12.3697 14.5415 12.6145C13.9846 12.8201 13.4806 13.1475 13.0665 13.5729C12.6394 13.9855 12.3117 14.4899 12.1082 15.0479C11.8633 15.6956 11.7308 16.3805 11.7165 17.0729C11.6665 17.9562 11.6665 18.2395 11.6665 20.5062C11.6665 22.7729 11.6665 23.0562 11.7165 23.9395C11.7308 24.6319 11.8633 25.3167 12.1082 25.9645C12.3117 26.5225 12.6394 27.0269 13.0665 27.4395C13.4806 27.8649 13.9846 28.1923 14.5415 28.3979C15.1893 28.6427 15.8741 28.7752 16.5665 28.7895C17.4498 28.8395 17.7332 28.8395 19.9998 28.8395C22.2665 28.8395 22.5498 28.8395 23.4332 28.7895C24.1255 28.7752 24.8104 28.6427 25.4582 28.3979C26.0161 28.1944 26.5205 27.8667 26.9332 27.4395C27.36 27.025 27.6901 26.5213 27.8998 25.9645C28.1375 25.315 28.267 24.6309 28.2832 23.9395C28.2832 23.0562 28.3332 22.7729 28.3332 20.5062C28.3332 18.2395 28.3332 17.9562 28.2832 17.0729ZM26.7832 23.8395C26.7771 24.3685 26.6813 24.8926 26.4998 25.3895C26.3668 25.7522 26.1531 26.0799 25.8748 26.3479C25.6045 26.6233 25.2775 26.8365 24.9165 26.9729C24.4196 27.1543 23.8955 27.2501 23.3665 27.2562C22.5332 27.2979 22.2248 27.3062 20.0332 27.3062C17.8415 27.3062 17.5332 27.3062 16.6998 27.2562C16.1506 27.2665 15.6037 27.1819 15.0832 27.0062C14.738 26.8629 14.426 26.6502 14.1665 26.3812C13.8899 26.1135 13.6789 25.7855 13.5498 25.4229C13.3464 24.9188 13.2335 24.3828 13.2165 23.8395C13.2165 23.0062 13.1665 22.6979 13.1665 20.5062C13.1665 18.3145 13.1665 18.0062 13.2165 17.1729C13.2202 16.6321 13.319 16.0961 13.5082 15.5895C13.6549 15.2378 13.8801 14.9242 14.1665 14.6729C14.4197 14.3863 14.7326 14.1588 15.0832 14.0062C15.5911 13.8229 16.1265 13.7271 16.6665 13.7229C17.4998 13.7229 17.8082 13.6729 19.9998 13.6729C22.1915 13.6729 22.4998 13.6729 23.3332 13.7229C23.8621 13.7289 24.3863 13.8247 24.8832 14.0062C25.2619 14.1467 25.6017 14.3752 25.8748 14.6729C26.1479 14.9288 26.3613 15.2418 26.4998 15.5895C26.685 16.097 26.7809 16.6327 26.7832 17.1729C26.8248 18.0062 26.8332 18.3145 26.8332 20.5062C26.8332 22.6979 26.8248 23.0062 26.7832 23.8395ZM19.9998 16.2312C19.1547 16.2328 18.329 16.485 17.627 16.9557C16.9251 17.4264 16.3785 18.0947 16.0562 18.876C15.7339 19.6573 15.6504 20.5166 15.8163 21.3453C15.9822 22.174 16.39 22.935 16.9882 23.532C17.5864 24.129 18.3482 24.5354 19.1772 24.6996C20.0063 24.8639 20.8654 24.7788 21.6461 24.455C22.4267 24.1312 23.0939 23.5832 23.5633 22.8804C24.0327 22.1775 24.2832 21.3513 24.2832 20.5062C24.2843 19.9438 24.1742 19.3867 23.9592 18.867C23.7442 18.3473 23.4286 17.8752 23.0306 17.4779C22.6325 17.0806 22.1598 16.7659 21.6397 16.552C21.1195 16.338 20.5622 16.229 19.9998 16.2312ZM19.9998 23.2812C19.451 23.2812 18.9145 23.1184 18.4581 22.8135C18.0018 22.5086 17.6461 22.0752 17.4361 21.5681C17.226 21.0611 17.1711 20.5031 17.2782 19.9648C17.3852 19.4265 17.6495 18.9321 18.0376 18.544C18.4257 18.1559 18.9202 17.8916 19.4585 17.7845C19.9968 17.6774 20.5547 17.7324 21.0618 17.9424C21.5688 18.1525 22.0022 18.5081 22.3072 18.9645C22.6121 19.4208 22.7748 19.9573 22.7748 20.5062C22.7748 20.8706 22.7031 21.2315 22.5636 21.5681C22.4241 21.9048 22.2197 22.2107 21.9621 22.4684C21.7044 22.7261 21.3985 22.9305 21.0618 23.07C20.7251 23.2094 20.3643 23.2812 19.9998 23.2812Z" fill="#495059"/>
</svg>
