<svg width="40" height="41" viewBox="0 0 40 41" fill="none" xmlns="http://www.w3.org/2000/svg">
<rect y="0.506348" width="40" height="40" rx="20" fill="#EBEBEC"/>
<path d="M28.3332 15.3399C27.7068 15.6116 27.0444 15.7912 26.3665 15.8732C27.0816 15.446 27.6176 14.7738 27.8748 13.9815C27.2028 14.3816 26.4671 14.6634 25.6998 14.8149C25.187 14.2587 24.504 13.8884 23.758 13.7622C23.012 13.636 22.2453 13.761 21.578 14.1175C20.9107 14.474 20.3806 15.042 20.0709 15.7322C19.7611 16.4225 19.6892 17.196 19.8665 17.9315C18.5077 17.8628 17.1785 17.509 15.9654 16.8931C14.7522 16.2772 13.6822 15.4129 12.8248 14.3565C12.5241 14.8817 12.3661 15.4764 12.3665 16.0815C12.3654 16.6435 12.5034 17.197 12.768 17.6928C13.0326 18.1886 13.4157 18.6113 13.8832 18.9232C13.3398 18.9084 12.8081 18.7626 12.3332 18.4982V18.5399C12.3372 19.3273 12.6132 20.0891 13.1143 20.6965C13.6154 21.3039 14.3109 21.7196 15.0832 21.8732C14.7859 21.9637 14.4772 22.0114 14.1665 22.0149C13.9514 22.0123 13.7369 21.9928 13.5248 21.9565C13.7448 22.6339 14.1704 23.2258 14.7424 23.65C15.3144 24.0742 16.0045 24.3095 16.7165 24.3232C15.5142 25.2692 14.0297 25.7856 12.4998 25.7899C12.2213 25.7908 11.943 25.7741 11.6665 25.7399C13.2285 26.7484 15.0488 27.2838 16.9082 27.2815C18.1912 27.2948 19.4641 27.0524 20.6524 26.5683C21.8408 26.0841 22.9207 25.3681 23.8292 24.4619C24.7377 23.5558 25.4565 22.4777 25.9436 21.2906C26.4308 20.1035 26.6765 18.8313 26.6665 17.5482C26.6665 17.4065 26.6665 17.2565 26.6665 17.1065C27.3204 16.6189 27.8844 16.021 28.3332 15.3399Z" fill="#495059"/>
</svg>
