<svg width="25" height="24" viewBox="0 0 25 24" fill="none" xmlns="http://www.w3.org/2000/svg">
<path d="M22.6665 5.7962C21.9177 6.12823 21.1234 6.34609 20.31 6.4425C21.1668 5.92984 21.808 5.12313 22.114 4.17272C21.3087 4.65108 20.4272 4.98784 19.508 5.16838C18.9449 4.56862 18.2146 4.15191 17.4118 3.97231C16.6089 3.7927 15.7707 3.85848 15.0057 4.16112C14.2407 4.46376 13.5843 4.9893 13.1216 5.66955C12.659 6.3498 12.4114 7.15338 12.411 7.97606C12.4107 8.2908 12.4462 8.60456 12.5167 8.91129C10.8854 8.82954 9.28952 8.40566 7.83263 7.66715C6.37575 6.92865 5.09044 5.89204 4.06014 4.62461C3.53552 5.52786 3.37477 6.59707 3.61063 7.61465C3.84648 8.63223 4.46121 9.5217 5.3297 10.102C4.67809 10.0819 4.04078 9.90599 3.47104 9.58912V9.64097C3.47117 10.5883 3.79895 11.5064 4.39879 12.2396C4.99863 12.9728 5.83361 13.4759 6.76211 13.6637C6.40984 13.7598 6.04626 13.8082 5.68111 13.8075C5.42198 13.8075 5.16341 13.7834 4.90877 13.7353C5.17098 14.5503 5.68129 15.2631 6.36837 15.7739C7.05545 16.2847 7.88497 16.5681 8.74097 16.5844C7.02046 17.9316 4.83626 18.5423 2.6665 18.2828C4.54232 19.4887 6.72573 20.129 8.95574 20.127C10.4917 20.1376 12.0144 19.8428 13.4354 19.2599C14.8565 18.677 16.1475 17.8176 17.2336 16.7315C18.3197 15.6454 19.1792 14.3543 19.7621 12.9333C20.345 11.5122 20.6397 9.9895 20.6292 8.45358C20.6292 8.27558 20.625 8.09868 20.6167 7.92289C21.4208 7.34128 22.1149 6.62115 22.6665 5.7962Z" fill="#197AFF"/>
</svg>
