<svg width="40" height="41" viewBox="0 0 40 41" fill="none" xmlns="http://www.w3.org/2000/svg">
<rect y="0.506348" width="40" height="40" rx="20" fill="#FFE6E6"/>
<path d="M29.1669 18.5982C29.2081 17.4055 28.9472 16.2216 28.4085 15.1566C28.043 14.7196 27.5358 14.4247 26.9752 14.3232C24.6565 14.1128 22.3281 14.0266 20.0002 14.0649C17.6807 14.0249 15.3608 14.1083 13.0502 14.3149C12.5934 14.398 12.1706 14.6123 11.8335 14.9316C11.0835 15.6232 11.0002 16.8066 10.9169 17.8066C10.7959 19.6045 10.7959 21.4086 10.9169 23.2066C10.941 23.7694 11.0248 24.3281 11.1669 24.8732C11.2673 25.2941 11.4706 25.6835 11.7585 26.0066C12.0979 26.3428 12.5305 26.5693 13.0002 26.6566C14.7968 26.8783 16.607 26.9702 18.4169 26.9316C21.3335 26.9732 23.8919 26.9316 26.9169 26.6982C27.3981 26.6163 27.8428 26.3895 28.1919 26.0482C28.4252 25.8148 28.5994 25.5292 28.7002 25.2149C28.9982 24.3004 29.1446 23.3433 29.1335 22.3816C29.1669 21.9149 29.1669 19.0982 29.1669 18.5982ZM18.1169 22.8816V17.7232L23.0502 20.3149C21.6669 21.0816 19.8419 21.9482 18.1169 22.8816Z" fill="#FF0000"/>
</svg>
